<mxfile host="65bd71144e">
    <diagram id="RwK65F_XUQ1pdzAkShcI" name="Page-1">
        <mxGraphModel dx="1088" dy="559" grid="1" gridSize="10" guides="1" tooltips="1" connect="1" arrows="1" fold="1" page="1" pageScale="1" pageWidth="850" pageHeight="1100" math="0" shadow="0">
            <root>
                <mxCell id="0"/>
                <mxCell id="1" parent="0"/>
                <mxCell id="46" style="edgeStyle=orthogonalEdgeStyle;curved=1;rounded=1;html=1;exitX=1;exitY=0.5;exitDx=0;exitDy=0;entryX=0;entryY=0.5;entryDx=0;entryDy=0;strokeColor=default;fontFamily=M+1Code Nerd Font;endArrow=none;endFill=0;exitPerimeter=0;" edge="1" parent="1" source="2" target="3">
                    <mxGeometry relative="1" as="geometry"/>
                </mxCell>
                <mxCell id="2" value="Advanced Control of Power Electronic Systems" style="rounded=1;whiteSpace=wrap;html=1;" vertex="1" parent="1">
                    <mxGeometry x="160" y="280" width="160" height="40" as="geometry"/>
                </mxCell>
                <mxCell id="11" style="edgeStyle=none;html=1;exitX=1;exitY=0.5;exitDx=0;exitDy=0;strokeColor=default;rounded=1;endArrow=none;endFill=0;entryX=0.952;entryY=0.652;entryDx=0;entryDy=0;entryPerimeter=0;" edge="1" parent="1" source="3" target="5">
                    <mxGeometry relative="1" as="geometry">
                        <Array as="points">
                            <mxPoint x="510" y="250"/>
                            <mxPoint x="540" y="180"/>
                        </Array>
                    </mxGeometry>
                </mxCell>
                <mxCell id="3" value="Linear Controller" style="rounded=1;whiteSpace=wrap;html=1;" vertex="1" parent="1">
                    <mxGeometry x="360" y="240" width="140" height="20" as="geometry"/>
                </mxCell>
                <mxCell id="47" style="edgeStyle=orthogonalEdgeStyle;curved=1;rounded=1;html=1;entryX=1;entryY=0.5;entryDx=0;entryDy=0;strokeColor=default;fontFamily=M+1Code Nerd Font;endArrow=none;endFill=0;" edge="1" parent="1" source="4" target="2">
                    <mxGeometry relative="1" as="geometry"/>
                </mxCell>
                <mxCell id="4" value="None-Linear Controller" style="rounded=1;whiteSpace=wrap;html=1;" vertex="1" parent="1">
                    <mxGeometry x="360" y="360" width="140" height="20" as="geometry"/>
                </mxCell>
                <mxCell id="5" value="Proportional and IntergralController" style="text;html=1;align=left;verticalAlign=middle;resizable=0;points=[];autosize=1;strokeColor=none;fillColor=none;" vertex="1" parent="1">
                    <mxGeometry x="550" y="160" width="210" height="30" as="geometry"/>
                </mxCell>
                <mxCell id="6" value="Resonant Controller" style="text;html=1;align=left;verticalAlign=middle;resizable=0;points=[];autosize=1;strokeColor=none;fillColor=none;" vertex="1" parent="1">
                    <mxGeometry x="550" y="190" width="130" height="30" as="geometry"/>
                </mxCell>
                <mxCell id="10" value="Repetitive Controller" style="text;html=1;align=left;verticalAlign=middle;resizable=0;points=[];autosize=1;strokeColor=none;fillColor=none;" vertex="1" parent="1">
                    <mxGeometry x="550" y="220" width="130" height="30" as="geometry"/>
                </mxCell>
                <mxCell id="12" value="Pole Placement Controller" style="text;html=1;align=left;verticalAlign=middle;resizable=0;points=[];autosize=1;strokeColor=none;fillColor=none;" vertex="1" parent="1">
                    <mxGeometry x="550" y="250" width="160" height="30" as="geometry"/>
                </mxCell>
                <mxCell id="13" value="Linear Quadratic Regulator" style="text;html=1;align=left;verticalAlign=middle;resizable=0;points=[];autosize=1;strokeColor=none;fillColor=none;" vertex="1" parent="1">
                    <mxGeometry x="550" y="280" width="170" height="30" as="geometry"/>
                </mxCell>
                <mxCell id="14" value="Hysteresis Control" style="text;html=1;align=left;verticalAlign=middle;resizable=0;points=[];autosize=1;strokeColor=none;fillColor=none;" vertex="1" parent="1">
                    <mxGeometry x="550" y="320" width="120" height="30" as="geometry"/>
                </mxCell>
                <mxCell id="15" value="Lookup Table-Direct Power Control" style="text;html=1;align=left;verticalAlign=middle;resizable=0;points=[];autosize=1;strokeColor=none;fillColor=none;" vertex="1" parent="1">
                    <mxGeometry x="550" y="350" width="210" height="30" as="geometry"/>
                </mxCell>
                <mxCell id="16" value="Model Predictive Control" style="text;html=1;align=left;verticalAlign=middle;resizable=0;points=[];autosize=1;strokeColor=none;fillColor=none;" vertex="1" parent="1">
                    <mxGeometry x="550" y="380" width="150" height="30" as="geometry"/>
                </mxCell>
                <mxCell id="17" value="Backstepping Control" style="text;html=1;align=left;verticalAlign=middle;resizable=0;points=[];autosize=1;strokeColor=none;fillColor=none;" vertex="1" parent="1">
                    <mxGeometry x="550" y="410" width="140" height="30" as="geometry"/>
                </mxCell>
                <mxCell id="18" value="Sliding Mode Control" style="text;html=1;align=left;verticalAlign=middle;resizable=0;points=[];autosize=1;strokeColor=none;fillColor=none;" vertex="1" parent="1">
                    <mxGeometry x="550" y="440" width="130" height="30" as="geometry"/>
                </mxCell>
                <mxCell id="19" value="Feedback Linerization Control" style="text;html=1;align=left;verticalAlign=middle;resizable=0;points=[];autosize=1;strokeColor=none;fillColor=none;" vertex="1" parent="1">
                    <mxGeometry x="550" y="470" width="180" height="30" as="geometry"/>
                </mxCell>
                <mxCell id="20" value="Passivity Control" style="text;html=1;align=left;verticalAlign=middle;resizable=0;points=[];autosize=1;strokeColor=none;fillColor=none;" vertex="1" parent="1">
                    <mxGeometry x="550" y="500" width="110" height="30" as="geometry"/>
                </mxCell>
                <mxCell id="21" value="Adaptive Control" style="text;html=1;align=left;verticalAlign=middle;resizable=0;points=[];autosize=1;strokeColor=none;fillColor=none;" vertex="1" parent="1">
                    <mxGeometry x="550" y="530" width="110" height="30" as="geometry"/>
                </mxCell>
                <mxCell id="22" value="Hâˆž Control" style="text;html=1;align=left;verticalAlign=middle;resizable=0;points=[];autosize=1;strokeColor=none;fillColor=none;" vertex="1" parent="1">
                    <mxGeometry x="550" y="560" width="80" height="30" as="geometry"/>
                </mxCell>
                <mxCell id="23" value="Aritficial Intelligence" style="text;html=1;align=left;verticalAlign=middle;resizable=0;points=[];autosize=1;strokeColor=none;fillColor=none;" vertex="1" parent="1">
                    <mxGeometry x="550" y="590" width="130" height="30" as="geometry"/>
                </mxCell>
                <mxCell id="30" style="edgeStyle=none;html=1;exitX=1;exitY=0.5;exitDx=0;exitDy=0;strokeColor=default;rounded=1;endArrow=none;endFill=0;entryX=0.952;entryY=0.652;entryDx=0;entryDy=0;entryPerimeter=0;" edge="1" parent="1" source="3">
                    <mxGeometry relative="1" as="geometry">
                        <mxPoint x="420.08" y="280" as="sourcePoint"/>
                        <mxPoint x="670.0000000000001" y="209.56" as="targetPoint"/>
                        <Array as="points">
                            <mxPoint x="510" y="250"/>
                            <mxPoint x="520" y="240"/>
                            <mxPoint x="540" y="210"/>
                        </Array>
                    </mxGeometry>
                </mxCell>
                <mxCell id="31" style="edgeStyle=none;html=1;exitX=1;exitY=0.5;exitDx=0;exitDy=0;strokeColor=default;rounded=1;endArrow=none;endFill=0;entryX=0.952;entryY=0.652;entryDx=0;entryDy=0;entryPerimeter=0;" edge="1" parent="1" source="3">
                    <mxGeometry relative="1" as="geometry">
                        <mxPoint x="500" y="280.44" as="sourcePoint"/>
                        <mxPoint x="670" y="240" as="targetPoint"/>
                        <Array as="points">
                            <mxPoint x="510" y="250"/>
                            <mxPoint x="530" y="240"/>
                            <mxPoint x="540" y="240.44"/>
                        </Array>
                    </mxGeometry>
                </mxCell>
                <mxCell id="32" style="edgeStyle=none;html=1;strokeColor=default;rounded=1;endArrow=none;endFill=0;entryX=0.952;entryY=0.652;entryDx=0;entryDy=0;entryPerimeter=0;" edge="1" parent="1">
                    <mxGeometry relative="1" as="geometry">
                        <mxPoint x="500" y="250" as="sourcePoint"/>
                        <mxPoint x="700" y="269.99999999999994" as="targetPoint"/>
                        <Array as="points">
                            <mxPoint x="510" y="250"/>
                            <mxPoint x="530" y="270"/>
                            <mxPoint x="560" y="270"/>
                            <mxPoint x="570" y="270.44"/>
                        </Array>
                    </mxGeometry>
                </mxCell>
                <mxCell id="33" style="edgeStyle=none;html=1;strokeColor=default;rounded=1;endArrow=none;endFill=0;entryX=0.952;entryY=0.652;entryDx=0;entryDy=0;entryPerimeter=0;exitX=1;exitY=0.5;exitDx=0;exitDy=0;" edge="1" parent="1" source="3">
                    <mxGeometry relative="1" as="geometry">
                        <mxPoint x="500" y="280" as="sourcePoint"/>
                        <mxPoint x="700" y="299.9999999999999" as="targetPoint"/>
                        <Array as="points">
                            <mxPoint x="510" y="250"/>
                            <mxPoint x="540" y="300"/>
                            <mxPoint x="560" y="300"/>
                            <mxPoint x="570" y="300.44"/>
                        </Array>
                    </mxGeometry>
                </mxCell>
                <mxCell id="35" style="edgeStyle=none;html=1;exitX=1;exitY=0.5;exitDx=0;exitDy=0;strokeColor=default;rounded=1;endArrow=none;endFill=0;entryX=0.952;entryY=0.652;entryDx=0;entryDy=0;entryPerimeter=0;" edge="1" parent="1" source="4">
                    <mxGeometry relative="1" as="geometry">
                        <mxPoint x="410.08" y="410" as="sourcePoint"/>
                        <mxPoint x="660.0000000000001" y="339.56000000000006" as="targetPoint"/>
                        <Array as="points">
                            <mxPoint x="510" y="370"/>
                            <mxPoint x="540" y="340"/>
                        </Array>
                    </mxGeometry>
                </mxCell>
                <mxCell id="36" style="edgeStyle=none;html=1;exitX=1;exitY=0.5;exitDx=0;exitDy=0;strokeColor=default;rounded=1;endArrow=none;endFill=0;entryX=0.952;entryY=0.652;entryDx=0;entryDy=0;entryPerimeter=0;" edge="1" parent="1" source="4">
                    <mxGeometry relative="1" as="geometry">
                        <mxPoint x="590" y="400.44" as="sourcePoint"/>
                        <mxPoint x="750" y="370.00000000000006" as="targetPoint"/>
                        <Array as="points">
                            <mxPoint x="630" y="370.44"/>
                        </Array>
                    </mxGeometry>
                </mxCell>
                <mxCell id="37" style="edgeStyle=none;html=1;exitX=1;exitY=0.5;exitDx=0;exitDy=0;strokeColor=default;rounded=1;endArrow=none;endFill=0;entryX=0.952;entryY=0.652;entryDx=0;entryDy=0;entryPerimeter=0;" edge="1" parent="1" source="4">
                    <mxGeometry relative="1" as="geometry">
                        <mxPoint x="530" y="430.44" as="sourcePoint"/>
                        <mxPoint x="690" y="400.00000000000006" as="targetPoint"/>
                        <Array as="points">
                            <mxPoint x="510" y="370"/>
                            <mxPoint x="540" y="400"/>
                            <mxPoint x="570" y="400.44"/>
                        </Array>
                    </mxGeometry>
                </mxCell>
                <mxCell id="38" style="edgeStyle=none;html=1;exitX=1;exitY=0.5;exitDx=0;exitDy=0;strokeColor=default;rounded=1;endArrow=none;endFill=0;entryX=0.952;entryY=0.652;entryDx=0;entryDy=0;entryPerimeter=0;" edge="1" parent="1" source="4">
                    <mxGeometry relative="1" as="geometry">
                        <mxPoint x="480" y="400" as="sourcePoint"/>
                        <mxPoint x="670" y="430" as="targetPoint"/>
                        <Array as="points">
                            <mxPoint x="510" y="370"/>
                            <mxPoint x="540" y="430"/>
                            <mxPoint x="550" y="430.44"/>
                        </Array>
                    </mxGeometry>
                </mxCell>
                <mxCell id="39" style="edgeStyle=none;html=1;exitX=1;exitY=0.5;exitDx=0;exitDy=0;strokeColor=default;rounded=1;endArrow=none;endFill=0;entryX=0.952;entryY=0.652;entryDx=0;entryDy=0;entryPerimeter=0;" edge="1" parent="1" source="4">
                    <mxGeometry relative="1" as="geometry">
                        <mxPoint x="500" y="400" as="sourcePoint"/>
                        <mxPoint x="670" y="460" as="targetPoint"/>
                        <Array as="points">
                            <mxPoint x="510" y="370"/>
                            <mxPoint x="540" y="460"/>
                            <mxPoint x="550" y="460.44"/>
                        </Array>
                    </mxGeometry>
                </mxCell>
                <mxCell id="40" style="edgeStyle=none;html=1;exitX=1;exitY=0.5;exitDx=0;exitDy=0;strokeColor=default;rounded=1;endArrow=none;endFill=0;entryX=0.952;entryY=0.652;entryDx=0;entryDy=0;entryPerimeter=0;" edge="1" parent="1" source="4">
                    <mxGeometry relative="1" as="geometry">
                        <mxPoint x="550" y="400" as="sourcePoint"/>
                        <mxPoint x="720" y="490" as="targetPoint"/>
                        <Array as="points">
                            <mxPoint x="510" y="370"/>
                            <mxPoint x="540" y="490"/>
                            <mxPoint x="600" y="490.44"/>
                        </Array>
                    </mxGeometry>
                </mxCell>
                <mxCell id="41" style="edgeStyle=none;html=1;exitX=1;exitY=0.5;exitDx=0;exitDy=0;strokeColor=default;rounded=1;endArrow=none;endFill=0;entryX=0.952;entryY=0.652;entryDx=0;entryDy=0;entryPerimeter=0;" edge="1" parent="1" source="4">
                    <mxGeometry relative="1" as="geometry">
                        <mxPoint x="430" y="400" as="sourcePoint"/>
                        <mxPoint x="650" y="520" as="targetPoint"/>
                        <Array as="points">
                            <mxPoint x="510" y="370"/>
                            <mxPoint x="540" y="520"/>
                        </Array>
                    </mxGeometry>
                </mxCell>
                <mxCell id="42" style="edgeStyle=none;html=1;exitX=1;exitY=0.5;exitDx=0;exitDy=0;strokeColor=default;rounded=1;endArrow=none;endFill=0;entryX=0.952;entryY=0.652;entryDx=0;entryDy=0;entryPerimeter=0;" edge="1" parent="1" source="4">
                    <mxGeometry relative="1" as="geometry">
                        <mxPoint x="500" y="400" as="sourcePoint"/>
                        <mxPoint x="650" y="550" as="targetPoint"/>
                        <Array as="points">
                            <mxPoint x="510" y="370"/>
                            <mxPoint x="540" y="550"/>
                        </Array>
                    </mxGeometry>
                </mxCell>
                <mxCell id="43" style="edgeStyle=none;html=1;exitX=1;exitY=0.5;exitDx=0;exitDy=0;strokeColor=default;rounded=1;endArrow=none;endFill=0;entryX=0.952;entryY=0.652;entryDx=0;entryDy=0;entryPerimeter=0;" edge="1" parent="1" source="4">
                    <mxGeometry relative="1" as="geometry">
                        <mxPoint x="470" y="400" as="sourcePoint"/>
                        <mxPoint x="620" y="580" as="targetPoint"/>
                        <Array as="points">
                            <mxPoint x="510" y="370"/>
                            <mxPoint x="540" y="580"/>
                        </Array>
                    </mxGeometry>
                </mxCell>
                <mxCell id="44" style="edgeStyle=none;html=1;exitX=1;exitY=0.5;exitDx=0;exitDy=0;strokeColor=default;rounded=1;endArrow=none;endFill=0;entryX=0.952;entryY=0.652;entryDx=0;entryDy=0;entryPerimeter=0;" edge="1" parent="1" source="4">
                    <mxGeometry relative="1" as="geometry">
                        <mxPoint x="540" y="399.9999999999999" as="sourcePoint"/>
                        <mxPoint x="660" y="610" as="targetPoint"/>
                        <Array as="points">
                            <mxPoint x="510" y="370"/>
                            <mxPoint x="540" y="610"/>
                        </Array>
                    </mxGeometry>
                </mxCell>
            </root>
        </mxGraphModel>
    </diagram>
</mxfile>